<svg width="135" height="41" viewBox="0 0 135 41" fill="none" xmlns="http://www.w3.org/2000/svg">
<path d="M2.81797 30V10H7.69797V11.78C8.37797 11.06 9.1913 10.4933 10.138 10.08C11.0846 9.65333 12.1046 9.44 13.198 9.44C14.5846 9.44 15.858 9.76667 17.018 10.42C18.1913 11.0733 19.1246 11.9467 19.818 13.04C20.5246 11.9467 21.458 11.0733 22.618 10.42C23.778 9.76667 25.0513 9.44 26.438 9.44C27.9046 9.44 29.2313 9.8 30.418 10.52C31.618 11.2267 32.5713 12.18 33.278 13.38C33.998 14.5667 34.358 15.8933 34.358 17.36V30H29.478V18.66C29.478 17.8867 29.2846 17.18 28.898 16.54C28.5246 15.8867 28.018 15.3667 27.378 14.98C26.7513 14.58 26.0446 14.38 25.258 14.38C24.4713 14.38 23.758 14.5733 23.118 14.96C22.4913 15.3333 21.9846 15.84 21.598 16.48C21.2113 17.12 21.018 17.8467 21.018 18.66V30H16.138V18.66C16.138 17.8467 15.9513 17.12 15.578 16.48C15.2046 15.84 14.698 15.3333 14.058 14.96C13.418 14.5733 12.7046 14.38 11.918 14.38C11.1446 14.38 10.438 14.58 9.79797 14.98C9.15797 15.3667 8.64464 15.8867 8.25797 16.54C7.88464 17.18 7.69797 17.8867 7.69797 18.66V30H2.81797ZM46.4742 30.52C44.6342 30.52 42.9542 30.0467 41.4342 29.1C39.9276 28.1533 38.7209 26.8867 37.8142 25.3C36.9209 23.7 36.4742 21.9333 36.4742 20C36.4742 18.5333 36.7342 17.1667 37.2542 15.9C37.7742 14.62 38.4876 13.5 39.3942 12.54C40.3142 11.5667 41.3809 10.8067 42.5942 10.26C43.8076 9.71333 45.1009 9.44 46.4742 9.44C48.3142 9.44 49.9876 9.91333 51.4942 10.86C53.0142 11.8067 54.2209 13.08 55.1142 14.68C56.0209 16.28 56.4742 18.0533 56.4742 20C56.4742 21.4533 56.2142 22.8133 55.6942 24.08C55.1742 25.3467 54.4542 26.4667 53.5342 27.44C52.6276 28.4 51.5676 29.1533 50.3542 29.7C49.1542 30.2467 47.8609 30.52 46.4742 30.52ZM46.4742 25.64C47.4476 25.64 48.3209 25.38 49.0942 24.86C49.8676 24.34 50.4742 23.6533 50.9142 22.8C51.3676 21.9467 51.5942 21.0133 51.5942 20C51.5942 18.96 51.3609 18.0133 50.8942 17.16C50.4409 16.2933 49.8209 15.6067 49.0342 15.1C48.2609 14.58 47.4076 14.32 46.4742 14.32C45.5142 14.32 44.6476 14.58 43.8742 15.1C43.1009 15.62 42.4876 16.3133 42.0342 17.18C41.5809 18.0467 41.3542 18.9867 41.3542 20C41.3542 21.0533 41.5876 22.0067 42.0542 22.86C42.5209 23.7133 43.1409 24.3933 43.9142 24.9C44.7009 25.3933 45.5542 25.64 46.4742 25.64ZM77.6083 17.36V30H72.7283V18.64C72.7283 17.8533 72.535 17.14 72.1483 16.5C71.7616 15.8467 71.2416 15.3333 70.5883 14.96C69.9483 14.5733 69.2349 14.38 68.4483 14.38C67.6616 14.38 66.9416 14.5733 66.2883 14.96C65.6483 15.3333 65.1349 15.8467 64.7483 16.5C64.3749 17.14 64.1883 17.8533 64.1883 18.64V30H59.3083L59.2883 10H64.1683L64.1883 11.78C64.8683 11.06 65.6816 10.4933 66.6283 10.08C67.5749 9.65333 68.595 9.44 69.6883 9.44C71.1416 9.44 72.4683 9.8 73.6683 10.52C74.8683 11.2267 75.8216 12.18 76.5283 13.38C77.2483 14.5667 77.6083 15.8933 77.6083 17.36ZM77.918 40V35.12C78.678 35.12 79.3646 34.94 79.978 34.58C80.5913 34.2333 81.078 33.7533 81.438 33.14C81.798 32.54 81.978 31.8667 81.978 31.12V10H86.858V31.12C86.858 32.7467 86.458 34.2333 85.658 35.58C84.8713 36.9267 83.798 38 82.438 38.8C81.0913 39.6 79.5846 40 77.918 40ZM84.458 7.42C83.738 7.42 83.1313 7.18667 82.638 6.72C82.1446 6.24 81.898 5.64 81.898 4.92C81.898 4.21333 82.1446 3.62 82.638 3.14C83.1313 2.66 83.7313 2.42 84.438 2.42C85.1446 2.42 85.738 2.66 86.218 3.14C86.7113 3.62 86.958 4.21333 86.958 4.92C86.958 5.64 86.718 6.24 86.238 6.72C85.758 7.18667 85.1646 7.42 84.458 7.42ZM99.6758 30.52C97.8358 30.52 96.1558 30.0467 94.6358 29.1C93.1291 28.1533 91.9225 26.8867 91.0158 25.3C90.1225 23.7 89.6758 21.9333 89.6758 20C89.6758 18.5333 89.9358 17.1667 90.4558 15.9C90.9758 14.62 91.6891 13.5 92.5958 12.54C93.5158 11.5667 94.5825 10.8067 95.7958 10.26C97.0091 9.71333 98.3025 9.44 99.6758 9.44C101.516 9.44 103.189 9.91333 104.696 10.86C106.216 11.8067 107.422 13.08 108.316 14.68C109.222 16.28 109.676 18.0533 109.676 20C109.676 21.4533 109.416 22.8133 108.896 24.08C108.376 25.3467 107.656 26.4667 106.736 27.44C105.829 28.4 104.769 29.1533 103.556 29.7C102.356 30.2467 101.062 30.52 99.6758 30.52ZM99.6758 25.64C100.649 25.64 101.522 25.38 102.296 24.86C103.069 24.34 103.676 23.6533 104.116 22.8C104.569 21.9467 104.796 21.0133 104.796 20C104.796 18.96 104.562 18.0133 104.096 17.16C103.642 16.2933 103.022 15.6067 102.236 15.1C101.462 14.58 100.609 14.32 99.6758 14.32C98.7158 14.32 97.8491 14.58 97.0758 15.1C96.3025 15.62 95.6891 16.3133 95.2358 17.18C94.7825 18.0467 94.5558 18.9867 94.5558 20C94.5558 21.0533 94.7891 22.0067 95.2558 22.86C95.7225 23.7133 96.3425 24.3933 97.1158 24.9C97.9025 25.3933 98.7558 25.64 99.6758 25.64ZM122.817 9.44C124.764 9.44 126.537 9.91333 128.137 10.86C129.737 11.8067 131.011 13.08 131.957 14.68C132.904 16.2667 133.377 18.0267 133.377 19.96C133.377 21.4133 133.104 22.78 132.557 24.06C132.011 25.34 131.251 26.4667 130.277 27.44C129.317 28.4 128.197 29.1533 126.917 29.7C125.651 30.2467 124.284 30.52 122.817 30.52C121.564 30.52 120.451 30.24 119.477 29.68C118.517 29.1067 117.711 28.3667 117.057 27.46V30H112.177V-2.38419e-06H117.057V12.5C117.711 11.5933 118.517 10.86 119.477 10.3C120.451 9.72667 121.564 9.44 122.817 9.44ZM122.757 25.8C123.797 25.8 124.737 25.54 125.577 25.02C126.431 24.4867 127.111 23.78 127.617 22.9C128.124 22.02 128.377 21.04 128.377 19.96C128.377 18.8933 128.124 17.92 127.617 17.04C127.111 16.1467 126.431 15.44 125.577 14.92C124.724 14.4 123.784 14.14 122.757 14.14C121.744 14.14 120.837 14.4067 120.037 14.94C119.237 15.46 118.611 16.1667 118.157 17.06C117.704 17.94 117.477 18.9067 117.477 19.96C117.477 21.04 117.704 22.0267 118.157 22.92C118.611 23.8 119.237 24.5 120.037 25.02C120.837 25.54 121.744 25.8 122.757 25.8Z" fill="#1BAC4B"/>
<rect x="2" y="35.12" width="76" height="4.89" fill="#1BAC4B"/>
</svg>
